# xmcd
#
# Track frame offsets: 
#        150
#        15023
#        37730
#        79362
#        95289
#        110781
#        127393
#        150119
#        169607
#        189503
#
# Disc length: 3059 seconds
#
# Revision: 1
# Processed by: cddbd v1.5.2PL0 Copyright (c) Steve Scherf et al.
# Submitted via: ExactAudioCopy v1.1
#
DISCID=6c0bf10a
DTITLE=Cuby and Blizzards - Live In Het Oude Luxor [CD2)
DYEAR=2005
DGENRE=Blues
TTITLE0=Go Down Sunshine
TTITLE1=Simple Man
TTITLE2=Too Blind To See
TTITLE3=Just For Fun
TTITLE4=Sugar Mama
TTITLE5=Nighttrain
TTITLE6=The Sky Is Crying
TTITLE7=No News, Good News
TTITLE8=Window Of My Eyes
TTITLE9=Dust My Broom
EXTD=
EXTT0=
EXTT1=
EXTT2=
EXTT3=
EXTT4=
EXTT5=
EXTT6=
EXTT7=
EXTT8=
EXTT9=
PLAYORDER=
